<svg width="244" height="25" viewBox="0 0 244 25" fill="none" xmlns="http://www.w3.org/2000/svg">
<path d="M11.0707 18.072C10.5667 18.096 10.1107 18.12 9.70269 18.12C3.43869 18.12 0.750688 14.832 0.558688 10.152V9.84C0.558688 7.416 1.32669 5.208 2.81469 3.648C4.30269 2.088 6.41469 1.2 8.91069 1.2C11.9827 1.2 14.3107 2.544 15.4867 4.248L12.4387 7.368C12.3667 4.896 11.0947 2.544 8.93469 2.544C6.53469 2.544 4.68669 5.328 4.68669 8.976C4.68669 9.168 4.61469 10.344 5.11869 12.144C5.38269 13.056 5.71869 13.848 6.17469 14.52C7.06269 15.864 8.33469 16.704 9.87069 16.704C10.3747 16.704 11.2387 16.584 11.6467 16.392V11.664C11.6467 11.16 11.5507 10.704 11.2867 10.392H15.9907C15.7747 10.68 15.6307 11.04 15.6307 11.496V17.544C14.2867 17.784 12.5347 18.024 11.0707 18.072ZM21.8833 17.496C21.9553 17.688 22.0513 17.856 22.1713 18H17.2993C17.5633 17.64 17.6593 17.208 17.6593 16.632V7.608C17.6593 6.816 17.4433 6.288 17.0833 5.976V5.928C17.2513 5.952 17.4673 5.952 17.7073 5.952C17.9713 5.952 18.4993 5.952 19.4353 5.832C20.3713 5.736 21.2593 5.52 21.7153 5.304H21.8113V8.712C22.4593 6.888 24.3313 5.304 26.9473 5.304H27.1153L27.4753 8.904C26.7313 8.616 25.9633 8.448 25.0993 8.448C22.8913 8.448 21.8113 9.864 21.8113 11.208V16.848C21.8113 17.088 21.8353 17.304 21.8833 17.496ZM36.029 17.784C35.333 18 34.589 18.12 33.797 18.12C30.173 18.12 27.605 15.648 27.605 11.856C27.605 7.896 30.437 5.304 34.301 5.304C37.373 5.304 39.773 7.08 39.773 9.504V9.888H31.925C31.829 10.368 31.805 10.8 31.805 11.16C31.805 13.992 33.557 15.696 35.957 15.696C37.853 15.696 39.341 14.712 40.181 13.44L40.253 13.464C39.629 15.552 38.117 17.112 36.029 17.784ZM32.285 7.8C32.165 8.112 32.045 8.448 31.973 8.808H36.413C36.413 7.296 35.549 6.168 34.421 6.168C33.365 6.168 32.669 6.84 32.285 7.8ZM49.4118 17.784C48.7158 18 47.9718 18.12 47.1798 18.12C43.5558 18.12 40.9878 15.648 40.9878 11.856C40.9878 7.896 43.8198 5.304 47.6838 5.304C50.7558 5.304 53.1558 7.08 53.1558 9.504V9.888H45.3078C45.2118 10.368 45.1878 10.8 45.1878 11.16C45.1878 13.992 46.9398 15.696 49.3398 15.696C51.2358 15.696 52.7238 14.712 53.5638 13.44L53.6358 13.464C53.0118 15.552 51.4998 17.112 49.4118 17.784ZM45.6678 7.8C45.5478 8.112 45.4278 8.448 45.3558 8.808H49.7958C49.7958 7.296 48.9318 6.168 47.8038 6.168C46.7478 6.168 46.0518 6.84 45.6678 7.8ZM59.0026 17.424C59.0746 17.64 59.1706 17.832 59.2906 18H54.4186C54.6826 17.64 54.7786 17.208 54.7786 16.632V7.608C54.7786 6.816 54.5626 6.288 54.2026 5.976V5.928C54.3706 5.952 54.5866 5.952 54.8266 5.952C55.0906 5.952 55.6426 5.952 56.5546 5.832C57.4666 5.736 58.3306 5.52 58.8346 5.304H58.9066V8.208C59.4106 6.864 60.7306 5.304 62.7706 5.304C65.2666 5.304 66.9466 7.584 66.9466 10.176V16.632C66.9466 17.208 67.0906 17.64 67.3066 18H62.4346C62.6986 17.64 62.7946 17.232 62.7946 16.68V11.184C62.7946 9.144 62.2186 8.112 60.9946 8.112C59.5546 8.112 58.9306 9.648 58.9306 10.32V16.68C58.9306 16.944 58.9546 17.208 59.0026 17.424ZM79.8626 17.424C79.9106 17.64 80.0066 17.832 80.1266 18H75.2786C75.4946 17.64 75.6146 17.208 75.6146 16.632V2.544C75.6146 1.968 75.4946 1.512 75.2786 1.2H87.1106L87.4946 4.44H87.4226C87.1346 3.312 85.6946 2.52 83.1746 2.52H79.7666V8.208H83.8466C84.4946 8.208 85.0706 8.04 85.2866 7.584V10.128C85.0706 9.672 84.4706 9.504 83.8226 9.504H79.7666V16.704C79.7666 16.968 79.7906 17.208 79.8626 17.424ZM91.9614 17.496C92.0334 17.688 92.1294 17.856 92.2494 18H87.3774C87.6414 17.64 87.7374 17.208 87.7374 16.632V7.608C87.7374 6.816 87.5214 6.288 87.1614 5.976V5.928C87.3294 5.952 87.5454 5.952 87.7854 5.952C88.0494 5.952 88.5774 5.952 89.5134 5.832C90.4494 5.736 91.3374 5.52 91.7934 5.304H91.8894V8.712C92.5374 6.888 94.4094 5.304 97.0254 5.304H97.1934L97.5534 8.904C96.8094 8.616 96.0414 8.448 95.1774 8.448C92.9694 8.448 91.8894 9.864 91.8894 11.208V16.848C91.8894 17.088 91.9134 17.304 91.9614 17.496ZM102.16 4.056C101.8 4.416 101.272 4.584 100.6 4.584C99.2559 4.584 98.4639 3.792 98.4639 2.64C98.4639 1.488 99.3279 0.767999 100.6 0.767999C101.872 0.767999 102.736 1.488 102.736 2.64C102.736 3.216 102.544 3.696 102.16 4.056ZM102.784 17.424C102.856 17.64 102.928 17.832 103.048 18H98.1999C98.4639 17.64 98.5599 17.208 98.5599 16.632V7.608C98.5599 6.816 98.3439 6.288 97.9839 5.976V5.928C98.1519 5.952 98.3679 5.952 98.6079 5.952C98.8719 5.952 99.4239 5.952 100.336 5.832C101.248 5.736 102.112 5.52 102.616 5.304H102.688V16.68C102.688 16.944 102.712 17.208 102.784 17.424ZM112.506 17.784C111.81 18 111.066 18.12 110.274 18.12C106.65 18.12 104.082 15.648 104.082 11.856C104.082 7.896 106.914 5.304 110.778 5.304C113.85 5.304 116.25 7.08 116.25 9.504V9.888H108.402C108.306 10.368 108.282 10.8 108.282 11.16C108.282 13.992 110.034 15.696 112.434 15.696C114.33 15.696 115.818 14.712 116.658 13.44L116.73 13.464C116.106 15.552 114.594 17.112 112.506 17.784ZM108.762 7.8C108.642 8.112 108.522 8.448 108.45 8.808H112.89C112.89 7.296 112.026 6.168 110.898 6.168C109.842 6.168 109.146 6.84 108.762 7.8ZM122.096 17.424C122.168 17.64 122.264 17.832 122.384 18H117.512C117.776 17.64 117.872 17.208 117.872 16.632V7.608C117.872 6.816 117.656 6.288 117.296 5.976V5.928C117.464 5.952 117.68 5.952 117.92 5.952C118.184 5.952 118.736 5.952 119.648 5.832C120.56 5.736 121.424 5.52 121.928 5.304H122V8.208C122.504 6.864 123.824 5.304 125.864 5.304C128.36 5.304 130.04 7.584 130.04 10.176V16.632C130.04 17.208 130.184 17.64 130.4 18H125.528C125.792 17.64 125.888 17.232 125.888 16.68V11.184C125.888 9.144 125.312 8.112 124.088 8.112C122.648 8.112 122.024 9.648 122.024 10.32V16.68C122.024 16.944 122.048 17.208 122.096 17.424ZM137.385 18.024C136.977 18.168 136.545 18.24 136.089 18.24C133.281 18.24 131.433 15.864 131.433 12.144C131.433 8.16 133.593 5.304 136.617 5.304C138.321 5.304 139.521 6.456 139.929 8.496V3.504C139.929 2.712 139.713 2.184 139.353 1.872V1.824C139.521 1.848 139.737 1.848 139.977 1.848C140.241 1.848 140.793 1.848 141.705 1.728C142.617 1.632 143.505 1.416 143.985 1.2H144.057V16.632C144.057 17.208 144.201 17.64 144.417 18H139.929V15.144C139.593 16.488 138.609 17.544 137.385 18.024ZM136.953 15.192C137.217 15.36 137.529 15.456 137.865 15.456C139.065 15.456 139.929 14.352 139.929 13.296V10.272C139.857 8.88 139.137 7.872 138.081 7.872C136.641 7.872 135.657 9.6 135.657 11.88C135.657 13.488 136.137 14.712 136.953 15.192ZM153.081 17.832C152.337 18 151.545 18.096 150.705 18.096C148.785 18.096 146.457 17.568 145.449 17.064L145.617 13.128C146.385 14.52 148.401 16.728 150.537 16.728C151.425 16.728 152.505 16.272 152.505 15.384C152.505 13.176 145.497 13.056 145.497 8.832C145.497 6.48 147.729 5.208 150.753 5.208C152.481 5.208 154.857 5.64 155.841 6.168L155.793 10.032C154.953 8.76 152.913 6.576 150.969 6.576C150.009 6.576 149.433 7.104 149.433 7.752C149.433 9.888 156.705 10.32 156.705 14.328C156.705 16.08 155.241 17.352 153.081 17.832ZM166.374 17.4C166.446 17.616 166.518 17.832 166.638 18H164.622C164.838 17.64 164.982 17.232 164.982 16.68V2.496C164.982 1.944 164.838 1.512 164.622 1.2H169.734L174.894 13.704L179.862 1.2H184.662C184.446 1.512 184.302 1.944 184.302 2.496V16.68C184.302 17.232 184.446 17.64 184.662 18H179.958C180.222 17.64 180.318 17.208 180.318 16.632V3.84L174.726 18H172.134L166.302 3.768V16.632C166.302 16.92 166.326 17.184 166.374 17.4ZM190.443 18.024C189.939 18.168 189.411 18.24 188.883 18.24C186.963 18.24 185.691 17.16 185.691 15.408C185.691 13.656 186.987 12.072 189.627 11.808L193.851 11.304V10.152C193.851 9.024 192.723 8.28 190.779 8.28C188.811 8.28 187.467 8.928 186.843 9.312L187.563 6C188.523 5.616 189.915 5.304 191.619 5.304C195.147 5.304 198.003 6.624 198.003 9.384V16.368C198.003 16.872 198.075 17.616 198.267 18H193.851V14.952C193.323 16.512 191.955 17.544 190.443 18.024ZM190.227 15.456C190.491 15.696 190.851 15.816 191.259 15.816C192.339 15.816 193.851 14.832 193.851 13.344V12.24L191.523 12.672C190.371 12.936 189.843 13.656 189.843 14.472C189.843 14.88 189.963 15.216 190.227 15.456ZM209.173 23.832C208.261 24.024 207.277 24.12 206.197 24.12C202.501 24.12 199.525 23.016 198.685 21.6L200.749 19.176C201.181 20.592 203.101 22.944 206.989 22.944C209.485 22.944 210.301 21.912 210.301 21.096C210.301 18.336 199.501 20.568 199.501 16.416C199.501 14.88 200.989 13.944 202.141 13.488C200.773 12.72 199.813 11.52 199.813 9.816C199.813 6.84 202.861 5.136 206.221 5.136C207.157 5.136 208.069 5.256 208.957 5.544C210.085 4.2 211.357 3.264 212.317 3.048L213.229 5.712C212.917 5.64 212.605 5.592 212.245 5.592C211.885 5.592 211.141 5.64 209.893 5.904C211.621 6.648 212.797 7.92 212.797 9.768C212.797 12.6 209.677 14.496 206.317 14.496C205.165 14.496 203.917 14.28 202.837 13.8C202.573 14.064 202.405 14.304 202.405 14.592C202.405 16.728 213.589 14.088 213.589 19.68C213.589 21.864 211.837 23.256 209.173 23.832ZM205.453 12.888C205.717 13.032 206.005 13.104 206.293 13.104C207.589 13.104 208.573 11.592 208.573 9.72C208.573 7.68 207.469 6.504 206.317 6.504C205.117 6.504 204.013 7.68 204.013 9.744C204.013 11.328 204.685 12.48 205.453 12.888ZM223.634 17.736C221.906 18.408 219.65 18.408 217.922 17.736C217.058 17.424 216.314 16.968 215.69 16.368C214.442 15.192 213.722 13.536 213.722 11.688C213.722 8.04 216.626 5.232 220.778 5.232C224.93 5.232 227.834 8.04 227.834 11.688C227.834 14.472 226.202 16.776 223.634 17.736ZM219.626 16.512C219.986 16.776 220.394 16.92 220.802 16.92C222.434 16.92 223.658 14.64 223.658 11.664C223.658 8.784 222.434 6.552 220.802 6.552C219.098 6.552 217.922 8.784 217.922 11.664C217.922 13.944 218.57 15.696 219.626 16.512ZM241.945 18.072C241.681 18.096 241.441 18.096 241.201 18.096C239.809 18.096 238.201 17.616 237.745 16.728L234.889 10.944L233.569 12.024V16.68C233.569 17.232 233.713 17.64 233.929 18H229.081C229.345 17.64 229.441 17.208 229.441 16.632V3.504C229.441 2.712 229.225 2.184 228.865 1.872V1.824C229.033 1.848 229.249 1.848 229.489 1.848C229.753 1.848 230.305 1.848 231.217 1.728C232.129 1.632 232.993 1.416 233.497 1.2H233.569V10.296L237.913 6.864C238.417 6.504 238.369 6.264 238.369 6.168C238.369 5.904 238.081 5.448 237.649 5.376V5.304H243.169V5.4C241.897 5.664 240.889 6.24 239.833 7.08L238.057 8.496L241.921 16.224C242.353 17.088 243.145 17.688 243.625 17.76V17.904C243.385 17.904 242.713 18.072 241.945 18.072Z" fill="black"/>
</svg>
